PathFileType	4	(X/Y/Z)	D:\Documents\Paper\paper_03\paper_step_1_data\data_step_3\marker\BD\subject_01.tsv
DataRate	CameraRate	NumFrames	NumMarkers	Units	OrigDataRate	OrigDataStartFrame	OrigNumFrames
200	200	10	43	mm	200	703	200
Frame#	Time	Top.Head			L.Acromium			R.Acromium			Sternum			L.ASIS			R.ASIS			V.Sacral			R.Knee.Lat			R.Knee.Med			L.Knee.Lat			L.Knee.Med			L.Ankle.Lat			L.Toe.Tip			R.Heel			R.Ankle.Med			R.Ankle.Lat			L.Toe.Med			L.Toe.Lat			L.Heel			L.Ankle.Med			L.Shank1			L.Shank2			R.Toe.Tip			R.Toe.Med			R.Toe.Lat			L.Thigh2			L.Thigh1			L.Thigh3			R.Thigh3			R.Thigh1			R.Thigh2			R.Shank1			R.Shank2			R.Shank3			L.Shank3			L.Shank4			R.Shank4			L.Thigh4			R.Thigh4			R.Heel.Lat			R.Heel.Med			L.Heel.Lat			L.Heel.Med		
		X1	Y1	Z1	X2	Y2	Z2	X3	Y3	Z3	X4	Y4	Z4	X5	Y5	Z5	X6	Y6	Z6	X7	Y7	Z7	X8	Y8	Z8	X9	Y9	Z9	X10	Y10	Z10	X11	Y11	Z11	X12	Y12	Z12	X13	Y13	Z13	X14	Y14	Z14	X15	Y15	Z15	X16	Y16	Z16	X17	Y17	Z17	X18	Y18	Z18	X19	Y19	Z19	X20	Y20	Z20	X21	Y21	Z21	X22	Y22	Z22	X23	Y23	Z23	X24	Y24	Z24	X25	Y25	Z25	X26	Y26	Z26	X27	Y27	Z27	X28	Y28	Z28	X29	Y29	Z29	X30	Y30	Z30	X31	Y31	Z31	X32	Y32	Z32	X33	Y33	Z33	X34	Y34	Z34	X35	Y35	Z35	X36	Y36	Z36	X37	Y37	Z37	X38	Y38	Z38	X39	Y39	Z39	X40	Y40	Z40	X41	Y41	Z41	X42	Y42	Z42	X43	Y43	Z43
2100	10.495	923.269	1692.824	-991.874	933.27	1410.542	-817.128	1091.425	1400.523	-1090.015	900.087	1359.256	-1018.694	804.844	912.057	-931.667	927.456	931.719	-1133.689	1009.093	964.275	-952.828	1003.603	475.051	-1165.441	948.448	454.661	-1065.422	849.247	476.031	-847.024	886.059	456.886	-949.949	907.016	102.792	-808.62	726.926	56.431	-869.016	1104.917	34.334	-1104.189	990.225	103.137	-1115.252	1060.75	104.977	-1173.867	786.909	45.304	-907.858	793.477	46.341	-802.801	1001.331	31.465	-814.557	927.184	104.567	-894.541	831.218	388.29	-837.282	829.428	307.638	-819.207	876.008	54.569	-1277.254	900.03	44.494	-1205.402	986.486	37.458	-1275.033	791.449	613.163	-878.457	792.757	696.024	-874.721	837.017	692.341	-829.321	1031.528	656.695	-1155.34	976.974	648.142	-1188.726	977.955	565.132	-1181.806	988.034	390.35	-1204.669	1003.38	304.055	-1210.309	1047.181	399.42	-1181.4	883.628	395.945	-801.192	885.404	309.85	-784.826	1062.504	317.357	-1187.124	838.899	602.083	-832.999	1031.307	568.351	-1148.86	1098.273	32.171	-1172.683	1024.782	25.276	-1101.008	935.301	22.304	-780.065	956.511	27.26	-883.594
2101	10.5	923.24	1692.819	-991.892	933.252	1410.553	-817.165	1091.407	1400.498	-1089.997	900.064	1359.253	-1018.696	804.809	912.067	-931.671	927.448	931.724	-1133.687	1009.095	964.286	-952.843	1003.565	475.053	-1165.469	948.463	454.668	-1065.427	849.255	476.078	-847.045	886.06	456.849	-949.946	907.037	102.791	-808.634	726.939	56.441	-869.005	1104.908	34.354	-1104.197	990.211	103.17	-1115.224	1060.651	104.778	-1173.941	786.901	45.301	-907.845	793.454	46.355	-802.821	1001.344	31.412	-814.588	927.158	104.541	-894.573	831.22	388.277	-837.276	829.407	307.65	-819.21	875.996	54.585	-1277.273	900.019	44.496	-1205.417	986.491	37.419	-1275.031	791.434	613.145	-878.443	792.748	696.001	-874.729	837.026	692.34	-829.312	1031.49	656.711	-1155.374	976.939	648.143	-1188.731	977.942	565.147	-1181.819	988.038	390.336	-1204.664	1003.389	304.036	-1210.276	1047.174	399.406	-1181.387	883.606	395.951	-801.211	885.432	309.807	-784.821	1062.488	317.379	-1187.151	837.897	603.409	-832.413	1031.29	568.292	-1148.832	1098.292	32.157	-1172.671	1024.789	25.294	-1101.02	935.315	22.312	-780.101	956.491	27.267	-883.598
2102	10.505	923.212	1692.822	-991.9	933.271	1410.568	-817.185	1091.394	1400.488	-1089.994	900.025	1359.291	-1018.73	804.783	912.062	-931.676	927.429	931.731	-1133.697	1009.096	964.312	-952.855	1003.6	475.022	-1165.445	948.44	454.66	-1065.428	849.24	476.086	-847.03	886.08	456.873	-949.926	907.024	102.767	-808.66	726.952	56.449	-869.006	1104.897	34.354	-1104.203	990.207	103.183	-1115.263	1060.59	104.852	-1173.984	786.926	45.295	-907.837	793.477	46.355	-802.78	1001.371	31.474	-814.565	927.122	104.559	-894.538	831.223	388.273	-837.282	829.402	307.64	-819.218	876.006	54.565	-1277.27	900.033	44.521	-1205.408	986.476	37.444	-1275.023	791.425	613.125	-878.421	792.725	696.017	-874.732	836.984	692.386	-829.323	1031.49	656.689	-1155.344	976.969	648.134	-1188.709	977.948	565.107	-1181.812	987.991	390.357	-1204.692	1003.39	304.038	-1210.29	1047.187	399.396	-1181.391	883.595	395.937	-801.194	885.407	309.779	-784.819	1062.487	317.359	-1187.17	838.903	602.032	-832.995	1031.303	568.348	-1148.815	1098.295	32.156	-1172.666	1024.797	25.304	-1100.994	935.353	22.291	-780.075	956.494	27.262	-883.586
2103	10.51	923.192	1692.844	-991.909	933.215	1410.559	-817.16	1091.387	1400.501	-1089.984	899.992	1359.238	-1018.696	804.776	912.053	-931.689	927.435	931.685	-1133.666	1009.051	964.285	-952.857	1003.591	475.03	-1165.458	948.491	454.651	-1065.41	849.23	476.076	-847.017	886.047	456.845	-949.948	907.031	102.791	-808.628	726.942	56.43	-869.01	1104.917	34.333	-1104.209	990.194	103.193	-1115.28	1060.644	104.934	-1173.963	786.929	45.311	-907.862	793.461	46.366	-802.793	1001.378	31.447	-814.547	927.151	104.542	-894.56	831.21	388.283	-837.277	829.402	307.62	-819.207	876.056	54.541	-1277.259	900.01	44.533	-1205.427	986.492	37.405	-1274.983	791.419	613.14	-878.467	792.724	696.011	-874.73	836.959	692.371	-829.309	1031.489	656.688	-1155.359	976.968	648.161	-1188.744	977.971	565.117	-1181.773	988.008	390.336	-1204.667	1003.394	304.062	-1210.308	1047.181	399.439	-1181.417	883.551	395.954	-801.223	885.426	309.788	-784.811	1062.478	317.325	-1187.149	838.873	602.118	-832.933	1031.266	568.321	-1148.812	1098.294	32.194	-1172.659	1024.78	25.273	-1100.999	935.329	22.3	-780.071	956.51	27.307	-883.628
2104	10.515	923.141	1692.841	-991.917	933.152	1410.538	-817.194	1091.383	1400.498	-1089.991	899.977	1359.252	-1018.726	804.773	912.031	-931.695	927.419	931.688	-1133.679	1009.05	964.285	-952.857	1003.577	475.034	-1165.474	948.458	454.652	-1065.431	849.191	476.054	-847.035	886.038	456.858	-949.96	907.027	102.78	-808.643	726.934	56.433	-869.005	1104.895	34.301	-1104.191	990.218	103.189	-1115.228	1060.718	104.847	-1173.946	786.922	45.28	-907.847	793.488	46.356	-802.801	1001.386	31.469	-814.541	927.197	104.584	-894.54	831.139	388.274	-837.294	829.365	307.626	-819.21	876.009	54.557	-1277.27	900.03	44.515	-1205.4	986.496	37.43	-1275.036	791.377	613.128	-878.432	792.705	695.992	-874.738	836.96	692.342	-829.308	1031.483	656.681	-1155.361	976.943	648.147	-1188.745	977.927	565.105	-1181.794	988.003	390.354	-1204.668	1003.378	304.06	-1210.315	1047.15	399.412	-1181.414	883.552	395.942	-801.227	885.397	309.813	-784.8	1062.467	317.355	-1187.154	838.869	602.103	-832.903	1031.285	568.34	-1148.873	1098.289	32.187	-1172.672	1024.798	25.281	-1100.992	935.321	22.305	-780.09	956.524	27.23	-883.554
2105	10.52	923.138	1692.828	-991.933	933.149	1410.553	-817.202	1091.346	1400.486	-1089.987	899.974	1359.247	-1018.722	804.763	912.025	-931.692	927.405	931.676	-1133.683	1009.008	964.274	-952.836	1003.559	475.049	-1165.458	948.482	454.62	-1065.418	849.143	476.043	-847.041	886.008	456.834	-949.965	907.005	102.778	-808.628	726.936	56.408	-869.01	1104.903	34.329	-1104.194	990.218	103.215	-1115.278	1060.709	105.022	-1173.885	786.923	45.271	-907.822	793.466	46.367	-802.802	1001.36	31.426	-814.556	927.2	104.557	-894.556	831.172	388.271	-837.299	829.382	307.602	-819.217	875.995	54.582	-1277.275	900.005	44.537	-1205.411	986.487	37.423	-1275.02	791.36	613.138	-878.473	792.691	695.979	-874.766	836.936	692.341	-829.312	1031.447	656.674	-1155.366	976.922	648.15	-1188.747	977.92	565.144	-1181.817	987.999	390.315	-1204.661	1003.365	304.045	-1210.312	1047.163	399.416	-1181.411	883.517	395.929	-801.209	885.391	309.816	-784.818	1062.447	317.343	-1187.142	838.83	602.093	-832.874	1031.236	568.393	-1148.85	1098.29	32.174	-1172.68	1024.798	25.271	-1101.021	935.313	22.303	-780.064	956.52	27.302	-883.602
2106	10.525	923.113	1692.828	-991.932	933.122	1410.547	-817.219	1091.315	1400.482	-1089.97	899.947	1359.273	-1018.764	804.721	912.04	-931.712	927.414	931.7	-1133.675	1008.952	964.256	-952.879	1003.526	475.06	-1165.484	948.427	454.614	-1065.451	849.156	476.043	-847.055	886.007	456.876	-949.95	907.037	102.779	-808.642	726.945	56.444	-869.013	1104.919	34.351	-1104.198	990.235	103.215	-1115.289	1060.642	104.827	-1173.976	786.934	45.295	-907.839	793.454	46.357	-802.801	1001.366	31.458	-814.565	927.153	104.534	-894.559	831.15	388.25	-837.303	829.36	307.612	-819.229	876.026	54.538	-1277.257	900.011	44.516	-1205.411	986.484	37.472	-1275.023	791.36	613.14	-878.47	792.664	696.01	-874.76	836.931	692.333	-829.317	1031.447	656.706	-1155.378	976.905	648.135	-1188.755	977.915	565.153	-1181.83	987.973	390.338	-1204.674	1003.373	304.038	-1210.324	1047.127	399.419	-1181.449	883.515	395.931	-801.222	885.366	309.764	-784.837	1062.447	317.372	-1187.189	837.851	603.428	-832.299	1031.232	568.329	-1148.861	1098.288	32.126	-1172.651	1024.79	25.304	-1101.008	935.321	22.305	-780.088	956.513	27.261	-883.599
2107	10.53	923.074	1692.84	-991.923	933.095	1410.547	-817.225	1091.294	1400.491	-1089.979	899.925	1359.219	-1018.732	804.721	912.019	-931.722	927.387	931.698	-1133.704	1008.991	964.32	-952.835	1003.531	475.044	-1165.46	948.387	454.666	-1065.444	849.126	476.067	-847.053	885.996	456.912	-949.962	907.228	103.186	-808.388	726.944	56.461	-869.023	1104.907	34.342	-1104.202	990.195	103.198	-1115.246	1060.78	105.074	-1173.879	786.896	45.305	-907.867	793.482	46.342	-802.799	1001.364	31.447	-814.556	927.139	104.522	-894.557	831.108	388.28	-837.321	829.357	307.603	-819.245	875.988	54.584	-1277.286	900.007	44.535	-1205.441	986.491	37.45	-1275.033	791.325	613.157	-878.491	792.664	696.021	-874.797	836.864	692.362	-829.321	1031.44	656.736	-1155.413	976.903	648.164	-1188.754	977.907	565.153	-1181.822	987.961	390.321	-1204.67	1003.35	304.057	-1210.333	1047.123	399.415	-1181.416	883.488	395.925	-801.23	885.322	309.8	-784.831	1062.431	317.341	-1187.152	837.789	603.421	-832.293	1031.229	568.348	-1148.846	1098.285	32.164	-1172.667	1024.774	25.28	-1100.996	935.324	22.284	-780.083	956.482	27.315	-883.608
2108	10.535	923.071	1692.85	-991.942	933.047	1410.552	-817.244	1091.28	1400.497	-1089.992	899.898	1359.24	-1018.771	804.703	912.005	-931.715	927.379	931.708	-1133.715	1008.945	964.272	-952.844	1003.506	475.058	-1165.48	948.367	454.657	-1065.437	849.088	476.09	-847.047	885.986	456.893	-949.982	906.989	102.789	-808.649	726.926	56.449	-869.039	1104.901	34.35	-1104.182	990.224	103.175	-1115.264	1060.63	104.783	-1173.924	786.916	45.284	-907.856	793.478	46.365	-802.815	1001.37	31.454	-814.573	927.158	104.562	-894.579	831.114	388.247	-837.35	829.329	307.588	-819.257	876	54.558	-1277.276	899.999	44.54	-1205.433	986.489	37.45	-1275.038	791.316	613.128	-878.517	792.622	695.98	-874.802	836.866	692.323	-829.352	1031.415	656.708	-1155.421	976.89	648.186	-1188.805	977.879	565.151	-1181.829	987.944	390.346	-1204.688	1003.357	304.033	-1210.326	1047.098	399.45	-1181.446	883.474	395.945	-801.23	885.337	309.817	-784.837	1062.399	317.389	-1187.188	837.818	603.415	-832.276	1031.215	568.377	-1148.897	1098.273	32.221	-1172.693	1024.773	25.304	-1100.997	935.325	22.294	-780.09	956.487	27.258	-883.551
2109	10.54	923.03	1692.868	-991.943	933.016	1410.542	-817.267	1091.254	1400.495	-1090.008	899.863	1359.24	-1018.798	804.687	912.023	-931.743	927.372	931.719	-1133.724	1008.953	964.302	-952.872	1003.498	475.061	-1165.49	948.364	454.681	-1065.452	849.076	476.05	-847.079	885.995	456.88	-949.996	906.995	102.783	-808.651	726.935	56.429	-869.028	1104.908	34.338	-1104.195	990.197	103.199	-1115.282	1060.519	104.91	-1174.007	786.916	45.308	-907.837	793.474	46.375	-802.815	1001.339	31.485	-814.562	927.124	104.571	-894.546	831.114	388.261	-837.297	829.316	307.609	-819.222	875.98	54.564	-1277.248	900.009	44.544	-1205.412	986.478	37.438	-1275.015	791.299	613.125	-878.496	792.607	695.979	-874.789	836.82	692.329	-829.38	1031.414	656.706	-1155.404	976.895	648.148	-1188.789	977.878	565.178	-1181.87	987.943	390.354	-1204.694	1003.341	304.063	-1210.359	1047.091	399.436	-1181.451	883.489	395.921	-801.244	885.304	309.782	-784.829	1062.407	317.325	-1187.15	837.777	603.411	-832.235	1031.187	568.323	-1148.879	1098.283	32.204	-1172.672	1024.771	25.288	-1101.012	935.373	22.286	-780.078	956.477	27.279	-883.6
